<?xml version="1.0" encoding="UTF-8"?>
<svg version="1.1" xmlns="http://www.w3.org/2000/svg" width="1011" height="267">
<path d="M0 0 C4.00171468 -0.09957372 8.00294042 -0.17179608 12.00561523 -0.21972656 C13.36446713 -0.23972628 14.72323424 -0.26693576 16.08178711 -0.30175781 C30.93789241 -0.67275126 30.93789241 -0.67275126 34.58486938 2.17063904 C36.61379843 4.7934666 37.12625401 7.38423846 37.93945312 10.59204102 C38.19222849 11.58362953 38.19222849 11.58362953 38.45011044 12.59525013 C40.43275897 20.50096841 42.11255559 28.47345273 43.78515625 36.44921875 C44.13057181 38.08063685 44.47640071 39.71196749 44.82261658 41.34321594 C45.72396614 45.59400498 46.62105507 49.84567983 47.51678467 54.09765625 C48.9522369 60.9099937 50.39262648 67.72128185 51.83621025 74.53190041 C52.33391353 76.88426461 52.82873718 79.23722066 53.32325745 81.59025574 C55.79291112 100.38920022 55.79291112 100.38920022 65.7902832 115.19921875 C72.52034669 118.40770974 78.69010948 118.60104933 86.0625 118.5 C87.19494141 118.51546875 88.32738281 118.5309375 89.49414062 118.546875 C97.93678623 118.50753827 103.36375904 117.23221418 109.8125 111.5 C117.22678745 101.44901136 117.4309107 83.00092035 119.52050781 71.01416016 C120.02474433 68.13260512 120.54259384 65.25376301 121.0625 62.375 C121.21259521 61.49271729 121.36269043 60.61043457 121.51733398 59.70141602 C122.97483718 51.72930338 122.97483718 51.72930338 126 49 C131.98776267 48.25152967 131.98776267 48.25152967 134.64405823 50.21565247 C136.35457473 52.46660156 136.70024524 54.20665351 137.19506836 56.98706055 C137.38213852 58.00209152 137.56920868 59.0171225 137.76194763 60.06291199 C138.04800621 61.70819633 138.04800621 61.70819633 138.33984375 63.38671875 C138.65218712 65.08318291 138.65218712 65.08318291 138.97084045 66.81391907 C139.86174675 71.6543022 140.72533519 76.49945639 141.59057617 81.34448242 C142.22626723 84.8812754 142.8764435 88.41519846 143.52734375 91.94921875 C143.81036598 93.57932137 143.81036598 93.57932137 144.09910583 95.24235535 C145.4397448 102.50711595 146.97575106 109.05329591 152.4375 114.375 C159.09971391 118.59981858 165.12409103 118.33382116 172.8125 118.3125 C173.96298828 118.32861328 175.11347656 118.34472656 176.29882812 118.36132812 C184.2797467 118.36590172 190.73046497 118.05156603 196.8125 112.375 C202.41888246 104.69977058 203.42966845 94.03343513 205.36328125 84.94140625 C205.68042949 83.4694522 205.99808257 81.99760684 206.31620789 80.52586365 C207.15168461 76.65540817 207.98147848 72.78375845 208.80969238 68.91174316 C209.63301429 65.06497693 210.45981506 61.21896048 211.28710938 57.37304688 C211.4488307 56.62114264 211.61055202 55.8692384 211.777174 55.09454918 C213.05463058 49.1597394 214.3404428 43.2267658 215.63290596 37.29520607 C216.38170816 33.85681517 217.12568916 30.41756915 217.85638428 26.97528076 C218.63417452 23.32286478 219.42996427 19.67483746 220.23046875 16.02734375 C220.45350174 14.95770889 220.67653473 13.88807404 220.90632629 12.786026 C221.12439438 11.8098381 221.34246246 10.83365021 221.56713867 9.82788086 C221.74862961 8.9859166 221.93012054 8.14395233 222.11711121 7.276474 C223.2252129 4.4193025 224.66549302 2.95929744 227 1 C230.47782583 -0.15927528 233.18803257 -0.11313066 236.85546875 -0.09765625 C237.84792351 -0.09553383 237.84792351 -0.09553383 238.86042786 -0.09336853 C240.96949828 -0.08777996 243.07846177 -0.07522965 245.1875 -0.0625 C246.61913909 -0.05748352 248.05077985 -0.05292087 249.48242188 -0.04882812 C252.98831588 -0.0378143 256.4941475 -0.02055755 260 0 C261.24655206 12.49451017 261.22029666 25.00956805 261.24023438 37.55371094 C261.24986819 41.20010836 261.28093915 44.84592335 261.3125 48.4921875 C261.44926194 78.81591147 261.06550361 117.74620771 238.26171875 140.8984375 C237.51535156 141.59195313 236.76898438 142.28546875 236 143 C234.98873047 143.94746094 234.98873047 143.94746094 233.95703125 144.9140625 C217.96302558 158.53747446 195.21653999 162.52674153 175 165 C174.18047852 165.10441406 173.36095703 165.20882812 172.51660156 165.31640625 C127.09611983 170.83461933 62.3298869 173.5311415 24.36328125 143.9453125 C3.85106778 126.71382674 0.77109731 97.63550718 -1.46875 72.50390625 C-2.2501703 62.47608915 -2.26116776 52.42788038 -2.25 42.375 C-2.24931519 41.50124725 -2.24863037 40.62749451 -2.2479248 39.7272644 C-2.2234793 30.27985318 -2.01342565 20.85037111 -1.546875 11.4140625 C-1.5086261 10.61157074 -1.4703772 9.80907898 -1.43096924 8.98226929 C-1.25563034 5.78491544 -1.0176737 3.0530211 0 0 Z " fill="#FFFFFF" transform="translate(3,99)"/>
<path d="M0 0 C0.67605071 -0.00367669 1.35210142 -0.00735338 2.04863852 -0.01114148 C4.32480693 -0.02219659 6.60092971 -0.02602522 8.87712097 -0.02983093 C10.50475205 -0.03609418 12.1323817 -0.04274085 13.76000977 -0.04974365 C18.18983286 -0.06716559 22.61964515 -0.07770854 27.04949403 -0.08594918 C29.81580115 -0.09109653 32.58210491 -0.09717236 35.34840965 -0.10346031 C43.99977493 -0.12251522 52.65113166 -0.13674605 61.3025139 -0.14507228 C71.29616331 -0.15484858 81.28959146 -0.18117704 91.28316289 -0.22157317 C99.00296463 -0.25170975 106.72270285 -0.26653879 114.44256228 -0.26985329 C119.05550518 -0.27220648 123.66821178 -0.28120173 128.28109169 -0.30631447 C132.62069107 -0.3295575 136.95989794 -0.33384374 141.29954338 -0.32355309 C142.89227731 -0.3230567 144.48503031 -0.32940735 146.07770538 -0.34310913 C148.25271522 -0.36077373 150.42630807 -0.35375046 152.60131836 -0.34057617 C153.81825284 -0.34296453 155.03518732 -0.34535288 156.2889986 -0.34781361 C160.11204537 0.2431511 161.75890751 1.46283818 164.49113464 4.14717102 C166.59152539 8.34795251 165.80915204 13.78158011 165.86613464 18.39717102 C165.92220886 20.09679993 165.92220886 20.09679993 165.97941589 21.83076477 C165.99101746 22.93033508 166.00261902 24.0299054 166.01457214 25.16279602 C166.03439148 26.16600891 166.05421082 27.1692218 166.07463074 28.20283508 C165.28307601 32.1970401 163.80686819 34.82218444 160.49113464 37.14717102 C156.50190743 38.04728479 152.5712758 37.94300009 148.49650574 37.88838196 C147.28139816 37.8957991 146.06629059 37.90321625 144.81436157 37.91085815 C141.48945528 37.9256813 138.1665556 37.91419051 134.8418231 37.89160061 C131.36113419 37.87475291 127.8806482 37.89337109 124.39997864 37.90870667 C117.80914518 37.93272976 111.21868547 37.92804243 104.62784064 37.91158414 C92.81826692 37.88303149 81.00871947 37.9032189 69.19916785 37.93398309 C65.05442765 37.94364117 60.90993689 37.94071633 56.76520896 37.92730761 C53.58579942 37.91890735 50.40639288 37.92246791 47.22697449 37.92353821 C46.07677322 37.91627213 44.92657196 37.90900604 43.74151611 37.90151978 C42.69284866 37.9040123 41.64418121 37.90650482 40.56373596 37.90907288 C39.65120245 37.90681072 38.73866894 37.90454857 37.79848289 37.90221786 C35.2153371 37.99609695 35.2153371 37.99609695 32.49113464 40.14717102 C32.24295539 43.08100438 32.16469583 45.78349787 32.24113464 48.70967102 C32.24886902 49.89979797 32.24886902 49.89979797 32.25675964 51.1139679 C31.95350907 54.94051811 31.95350907 54.94051811 33.49113464 58.14717102 C35.09710707 58.24663792 36.70744958 58.2762573 38.3164978 58.2784729 C39.88320724 58.28448517 39.88320724 58.28448517 41.48156738 58.2906189 C42.63738815 58.29009018 43.79320892 58.28956146 44.98405457 58.28901672 C46.19375916 58.29249115 47.40346375 58.29596558 48.64982605 58.29954529 C51.28755443 58.30691928 53.92523207 58.31258446 56.56296349 58.31583595 C60.73594695 58.32173746 64.90884472 58.33827102 69.08178711 58.35717773 C70.50970358 58.36351567 71.93762011 58.36984128 73.36553669 58.3761549 C74.08081142 58.37932071 74.79608615 58.38248652 75.53303587 58.38574827 C85.25123111 58.42783511 94.9693876 58.46078437 104.68766785 58.47309875 C111.23793558 58.48148425 117.78799239 58.50399615 124.33815461 58.54245442 C127.80479794 58.56220552 131.27112603 58.57462312 134.73782921 58.56962013 C138.60917338 58.56410173 142.47998628 58.58940076 146.35124207 58.61714172 C148.06979149 58.60723961 148.06979149 58.60723961 149.82305908 58.59713745 C155.98419653 58.6697021 159.84565945 58.92895437 164.49113464 63.14717102 C166.5906919 67.34628554 165.72050385 72.84611006 165.74113464 77.45967102 C165.77207214 79.17186829 165.77207214 79.17186829 165.80363464 80.9186554 C165.81136902 82.57284485 165.81136902 82.57284485 165.81925964 84.26045227 C165.82860535 85.26890198 165.83795105 86.27735168 165.84757996 87.31636047 C165.42233602 90.69355464 164.60547482 92.48408179 162.49113464 95.14717102 C158.9634587 96.88590934 156.09891017 97.40070236 152.18907166 97.41891479 C151.14028839 97.42863312 150.09150513 97.43835144 149.01094055 97.44836426 C147.30102432 97.44924797 147.30102432 97.44924797 145.55656433 97.45014954 C144.34799774 97.45858887 143.13943115 97.4670282 141.89424133 97.47572327 C139.27232778 97.49265231 136.65068546 97.50602431 134.02875519 97.5132618 C129.88619263 97.52476442 125.74378701 97.55022497 121.6013031 97.57757568 C115.05427417 97.61917358 108.50723769 97.65161685 101.96013951 97.68004984 C90.22068677 97.73110755 78.48129877 97.79307669 66.7419579 97.86539024 C62.62017381 97.89035508 58.49841077 97.90976641 54.37657881 97.92477238 C51.22040853 97.93733031 48.06427263 97.95602218 44.90812683 97.97358704 C43.76008575 97.97620041 42.61204468 97.97881378 41.42921448 97.98150635 C40.39171051 97.98840485 39.35420654 97.99530334 38.28526306 98.00241089 C37.37826031 98.0062658 36.47125755 98.01012072 35.53676987 98.01409245 C33.4975196 97.92088223 33.4975196 97.92088223 32.49113464 99.14717102 C32.3912649 101.9905215 32.35235583 104.80414265 32.36613464 107.64717102 C32.36226746 108.44510071 32.35840027 109.2430304 32.35441589 110.06513977 C31.98213855 113.91556422 31.98213855 113.91556422 33.49113464 117.14717102 C35.06944104 117.24874526 36.65227587 117.28069535 38.23384094 117.28520203 C39.26004044 117.29065536 40.28623993 117.2961087 41.34353638 117.30172729 C43.04685875 117.30329079 43.04685875 117.30329079 44.78459167 117.30488586 C46.56747841 117.31250694 46.56747841 117.31250694 48.38638306 117.32028198 C51.65734989 117.3338266 54.92830328 117.34319285 58.19928598 117.35169935 C61.6220255 117.36240205 65.04471782 117.380989 68.46742249 117.39952087 C80.13381635 117.46148074 91.80020672 117.51539382 103.46672058 117.54853821 C109.90527062 117.56691061 116.34368313 117.5958839 122.78213203 117.63654292 C126.18895327 117.65757832 129.5956014 117.67306513 133.002491 117.67535019 C136.80896879 117.68025756 140.61493627 117.70341422 144.42131042 117.73066711 C145.54471329 117.72766098 146.66811615 117.72465485 147.82556152 117.72155762 C153.80847324 117.78518257 158.23194327 118.19951516 163.49113464 121.14717102 C166.95753735 125.63103043 165.86002324 132.19746773 165.86613464 137.58467102 C165.89062683 138.71711243 165.91511902 139.84955383 165.94035339 141.01631165 C165.96976425 149.33468249 165.96976425 149.33468249 163.59269714 153.36982727 C159.97201854 156.43192535 157.67893527 156.27783352 152.98226929 156.29434204 C152.30621857 156.29801873 151.63016786 156.30169542 150.93363076 156.30548352 C148.65746236 156.31653863 146.38133958 156.32036726 144.10514832 156.32417297 C142.47751723 156.33043622 140.84988759 156.33708289 139.22225952 156.34408569 C134.79243643 156.36150763 130.36262413 156.37205058 125.93277526 156.38029122 C123.16646813 156.38543857 120.40016438 156.3915144 117.63385963 156.39780235 C108.98249435 156.41685726 100.33113763 156.43108809 91.67975539 156.43941432 C81.68610597 156.44919062 71.69267782 156.47551908 61.6991064 156.51591522 C53.97930466 156.5460518 46.25956644 156.56088083 38.53970701 156.56419533 C33.92676411 156.56654853 29.31405751 156.57554377 24.7011776 156.60065651 C20.36157822 156.62389954 16.02237135 156.62818578 11.68272591 156.61789513 C10.08999198 156.61739874 8.49723897 156.62374939 6.9045639 156.63745117 C4.72955407 156.65511577 2.55596121 156.6480925 0.38095093 156.63491821 C-1.44445079 156.63850074 -1.44445079 156.63850074 -3.30672932 156.64215565 C-7.12977608 156.05119094 -8.77663822 154.83150387 -11.50886536 152.14717102 C-12.84026485 149.48437204 -12.64393641 147.45659157 -12.65603638 144.47351074 C-12.66319168 143.26634903 -12.67034698 142.05918732 -12.67771912 140.81544495 C-12.68055949 139.47053554 -12.68327121 138.12562585 -12.68586731 136.78071594 C-12.6921311 135.36983065 -12.69877783 133.95894701 -12.70578003 132.54806519 C-12.72319723 128.7091331 -12.73374369 124.87021348 -12.74198556 121.03125167 C-12.7471341 118.63346563 -12.75320989 116.23568347 -12.75949669 113.83790016 C-12.77855061 106.33770127 -12.79278143 98.83751225 -12.80110866 91.3372938 C-12.81088346 82.67596098 -12.83720829 74.01488355 -12.87760955 65.35364074 C-12.90775616 58.66143105 -12.92257613 51.96929464 -12.92588967 45.27701837 C-12.9282418 41.27886495 -12.93722293 37.28098432 -12.96235085 33.28290367 C-12.98561148 29.52111278 -12.9898732 25.75977466 -12.97958946 21.99793053 C-12.9790935 20.61805212 -12.98543197 19.23815157 -12.99914551 17.85834122 C-13.01683425 15.97290434 -13.00738276 14.08727132 -12.99661255 12.20178223 C-12.9990009 11.14708331 -13.00138926 10.0923844 -13.00384998 9.00572491 C-12.3830321 5.42047948 -11.00211717 3.74704559 -8.50886536 1.14717102 C-5.64623325 -0.28414503 -3.20110486 0.01125171 0 0 Z " fill="#FFFFFF" transform="translate(576.5088653564453,61.85282897949219)"/>
<path d="M0 0 C1.37865112 -0.00514122 2.75729567 -0.01242404 4.13592529 -0.02168274 C7.87629985 -0.04019371 11.61596121 -0.0272552 15.35630608 -0.00759244 C19.28201974 0.00882458 23.20768927 -0.00002429 27.13342285 -0.00511169 C33.73424616 -0.00963353 40.33478624 0.00623201 46.93554688 0.03417969 C54.53873015 0.06612601 62.14139966 0.06625755 69.74461889 0.04896492 C77.08146366 0.03302007 84.41812231 0.03989106 91.75495911 0.05690193 C94.86470063 0.0637285 97.97429098 0.06278528 101.08403015 0.05535698 C104.76143628 0.04761491 108.4382689 0.06007382 112.1155777 0.08720589 C114.0870589 0.0972252 116.05860957 0.08798574 118.03009033 0.07788086 C130.98631026 0.21464324 141.57523551 3.30976469 151.60351562 11.63110352 C152.22742188 12.13125977 152.85132813 12.63141602 153.49414062 13.14672852 C166.66732019 24.89578056 172.61322139 45.54761667 173.73175049 62.58428955 C173.96566135 67.76549962 173.99124411 72.9454258 173.97851562 78.13110352 C173.97830414 78.92524658 173.97809265 79.71938965 173.97787476 80.53759766 C173.91729427 103.33883103 170.52223587 126.02845897 154.29101562 143.44360352 C142.70431535 154.18249645 128.73906139 157.25473289 113.33959961 157.11694336 C111.96487569 157.11909579 110.59015358 157.12298317 109.21543884 157.12844849 C105.52579076 157.13803551 101.83663618 157.12298004 98.14704776 157.1025424 C94.27056977 157.08482337 90.39410363 157.08849915 86.51759338 157.08926392 C80.02100475 157.08739931 73.52460463 157.07013922 67.02807617 157.04272461 C59.52122461 157.01116339 52.01457821 157.00073298 44.5076651 157.00219572 C36.49414208 157.0035461 28.48069784 156.98968107 20.46719861 156.97130251 C18.1636349 156.96704384 15.86008393 156.96562078 13.55651665 156.96482468 C9.94237959 156.96281607 6.3284147 156.950609 2.71433449 156.9304924 C0.75669747 156.92186795 -1.20097485 156.92298502 -3.15863037 156.92437744 C-4.32332352 156.91584747 -5.48801666 156.9073175 -6.68800354 156.89852905 C-7.69983987 156.89517736 -8.7116762 156.89182568 -9.75417423 156.88837242 C-12.50898723 156.62014966 -14.09890614 156.15239176 -16.39648438 154.63110352 C-18.70509594 151.16818617 -18.6528431 149.8458246 -18.67063904 145.76126099 C-18.68061417 144.5358963 -18.69058929 143.31053162 -18.7008667 142.04803467 C-18.70176251 140.68786634 -18.70242608 139.32769784 -18.70288086 137.9675293 C-18.71050136 136.53678962 -18.71892867 135.10605404 -18.72810364 133.67532349 C-18.75006634 129.7868518 -18.75884988 125.89845875 -18.76393008 122.00993204 C-18.76757154 119.58080898 -18.77381049 117.15170659 -18.78093147 114.7225914 C-18.80543203 106.2488896 -18.81847919 97.77524908 -18.82202148 89.30151367 C-18.82565735 81.40168774 -18.85555455 73.5022502 -18.89742607 65.602543 C-18.93211064 58.82113058 -18.9475696 52.03984698 -18.94826752 45.25834644 C-18.94906097 41.20762283 -18.95782999 37.15729475 -18.98626518 33.10666275 C-19.01241491 29.2963408 -19.01466909 25.48674314 -18.99860954 21.67637253 C-18.99679254 20.2787544 -19.00350873 18.88109493 -19.01942825 17.48356628 C-19.13081283 7.06967499 -19.13081283 7.06967499 -16.69630432 2.30039978 C-11.29812922 -0.4304018 -5.96261142 -0.05406839 0 0 Z M26.18115234 39.21051025 C24.01279391 42.5374573 24.10897259 44.87090505 24.11767578 48.83056641 C24.11387909 49.54809586 24.1100824 50.26562531 24.10617065 51.00489807 C24.09877382 53.37163299 24.12013172 55.73713439 24.14257812 58.10375977 C24.14496296 59.74995276 24.14586779 61.3961485 24.14535522 63.04234314 C24.1484816 66.48982824 24.1650354 69.93689697 24.19189453 73.38427734 C24.22590097 77.80521613 24.23352227 82.22569809 24.23200417 86.64675236 C24.23254772 90.04479846 24.24351214 93.44274452 24.25800705 96.84075737 C24.26437461 98.47105591 24.26831385 100.1013658 24.26979446 101.7316761 C24.27412649 104.00832603 24.291624 106.2844896 24.31298828 108.56103516 C24.32061188 109.85691055 24.32823547 111.15278595 24.33609009 112.4879303 C24.3628228 115.79241098 24.3628228 115.79241098 26.60351562 118.63110352 C29.21216108 118.94418748 31.5863004 119.06131957 34.19921875 119.05102539 C34.98324066 119.05949493 35.76726257 119.06796448 36.57504272 119.07669067 C39.17844704 119.10016881 41.78126322 119.10107956 44.38476562 119.09985352 C46.19641354 119.10695384 48.0080592 119.11465265 49.81970215 119.1229248 C53.62628409 119.13639816 57.43265865 119.13792797 61.23925781 119.13208008 C66.09704287 119.12621245 70.95381861 119.15663926 75.811409 119.19719696 C79.55889159 119.22317682 83.30613546 119.22594151 87.05369568 119.2223053 C88.842916 119.22399015 90.63214812 119.23357109 92.42127991 119.25144958 C103.02049197 119.34562358 112.08698755 119.42047274 120.45666504 111.98474121 C128.99610246 103.33707959 130.68370132 90.0246519 130.63867188 78.41235352 C130.31578744 66.06480721 128.43654884 53.89892334 119.60351562 44.63110352 C112.68406115 38.21795059 105.2524039 37.5230297 96.10107422 37.45410156 C95.37510544 37.44753036 94.64913666 37.44095917 93.90116882 37.43418884 C91.51809567 37.41460448 89.13508478 37.40283259 86.75195312 37.39282227 C85.93500599 37.38874674 85.11805885 37.38467121 84.27635574 37.38047218 C79.95995594 37.3596844 75.64358733 37.34534603 71.32714844 37.3359375 C66.87038446 37.324831 62.41411397 37.29036227 57.95752525 37.2507658 C54.52602193 37.2246539 51.09463792 37.216251 47.66304398 37.21265602 C46.01957454 37.20778343 44.37611067 37.19615025 42.73273849 37.17761803 C40.43714383 37.15331965 38.14285132 37.15417266 35.84716797 37.16113281 C34.5417807 37.15526657 33.23639343 37.14940033 31.89144897 37.14335632 C28.59082894 37.3992548 28.59082894 37.3992548 26.18115234 39.21051025 Z " fill="#FFFFFF" transform="translate(371.396484375,61.368896484375)"/>
<path d="M0 0 C1.35192947 -0.01902626 1.35192947 -0.01902626 2.73117065 -0.03843689 C3.69789703 -0.03550125 4.66462341 -0.03256561 5.66064453 -0.02954102 C6.66177277 -0.03478287 7.662901 -0.04002472 8.69436646 -0.04542542 C10.81088332 -0.05184485 12.92743586 -0.05050965 15.04394531 -0.04199219 C18.27490179 -0.03349606 21.50408207 -0.06222323 24.73486328 -0.09399414 C26.7934565 -0.09560666 28.85205284 -0.09502766 30.91064453 -0.09204102 C31.87332245 -0.10327499 32.83600037 -0.11450897 33.82785034 -0.12608337 C44.20618863 -0.01881179 49.08829675 5.79276095 56.02783203 12.85327148 C56.83585266 13.66649368 57.64387329 14.47971588 58.47637939 15.31758118 C61.0452258 17.9041775 63.60725362 20.49739 66.16845703 23.09155273 C68.74482574 25.69552368 71.32263786 28.29802387 73.90338135 30.8976593 C75.50652415 32.51307853 77.1069865 34.13116302 78.70452881 35.75212097 C79.42577942 36.4799025 80.14703003 37.20768402 80.89013672 37.95751953 C81.84228058 38.92204292 81.84228058 38.92204292 82.81365967 39.90605164 C84.90078098 41.85427892 86.22377125 42.36696973 89.04345703 42.90405273 C96.62973693 41.78015942 102.78374261 33.14949836 107.98876953 27.82592773 C109.39342995 26.40376872 110.79838654 24.98190218 112.20361328 23.56030273 C114.38354223 21.34933751 116.56102365 19.13611403 118.73339844 16.91772461 C120.85340974 14.75532261 122.98281121 12.6025353 125.11376953 10.45092773 C125.75766632 9.78841003 126.40156311 9.12589233 127.06497192 8.44329834 C132.97659093 2.49844241 137.55607154 0.07969921 146.00906372 -0.03843689 C146.97174164 -0.03550125 147.93441956 -0.03256561 148.92626953 -0.02954102 C149.92931122 -0.03478287 150.93235291 -0.04002472 151.96578979 -0.04542542 C154.0787463 -0.05182993 156.19173853 -0.05052903 158.3046875 -0.04199219 C161.53986679 -0.03345674 164.77329457 -0.06230729 168.00830078 -0.09399414 C170.06428984 -0.09560565 172.12028202 -0.09502958 174.17626953 -0.09204102 C175.6263591 -0.10889198 175.6263591 -0.10889198 177.10574341 -0.12608337 C183.7748385 -0.05666875 183.7748385 -0.05666875 187.015625 2.26318359 C188.41845703 4.40405273 188.41845703 4.40405273 189.10595703 7.15405273 C187.25276892 15.91457834 176.75922415 23.18312585 170.52313614 29.37453842 C168.70520271 31.17956881 166.89053432 32.98782714 165.07662964 34.79690552 C161.23506235 38.62712841 157.38953976 42.45336472 153.54345703 46.27905273 C149.06341314 50.73548163 144.58501253 55.19353701 140.11077499 59.65579605 C138.32182066 61.43826363 136.52988678 63.21769872 134.73782349 64.99703979 C133.6483113 66.08292183 132.55893793 67.16894317 131.46972656 68.25512695 C130.97002853 68.74965866 130.47033051 69.24419037 129.95549011 69.75370789 C127.21364239 72.4951299 125.65237481 74.17598438 124.91845703 78.02905273 C126.21671472 86.79229211 137.1655153 94.27032206 143.31377792 100.37453842 C145.13171135 102.17956881 146.94637975 103.98782714 148.76028442 105.79690552 C152.60185171 109.62712841 156.4473743 113.45336472 160.29345703 117.27905273 C164.77350093 121.73548163 169.25190153 126.19353701 173.72613907 130.65579605 C175.51509341 132.43826363 177.30702729 134.21769872 179.09909058 135.99703979 C180.18860276 137.08292183 181.27797613 138.16894317 182.3671875 139.25512695 C182.86688553 139.74965866 183.36658356 140.24419037 183.88142395 140.75370789 C186.75397861 143.62581654 188.26003263 145.18946563 188.79345703 149.27905273 C188.41845703 152.40405273 188.41845703 152.40405273 186.52539062 154.56616211 C182.11643258 157.17425862 178.36857592 156.97884166 173.33251953 156.93530273 C172.35737396 156.93912964 171.38222839 156.94295654 170.37753296 156.94689941 C168.31824713 156.94961672 166.25892668 156.94226827 164.19970703 156.92553711 C161.0608952 156.90417143 157.92438429 156.92532145 154.78564453 156.95092773 C152.78043118 156.94828352 150.77521925 156.94315662 148.77001953 156.93530273 C147.83751373 156.94339966 146.90500793 156.95149658 145.94424438 156.95983887 C135.15768602 156.80603474 129.91765477 151.33602955 122.71142578 143.95483398 C121.9048201 143.14161179 121.09821442 142.32838959 120.26716614 141.49052429 C117.70618909 138.9062432 115.1556427 136.31197051 112.60595703 133.71655273 C110.03667398 131.112222 107.46525795 128.51004724 104.89118958 125.91044617 C103.29318367 124.2954403 101.69827077 122.67736707 100.10673523 121.0559845 C99.02970085 119.96431221 99.02970085 119.96431221 97.9309082 118.85058594 C96.98328865 117.88606255 96.98328865 117.88606255 96.01652527 116.90205383 C93.93419573 114.95011469 92.61205857 114.44092922 89.79345703 113.90405273 C82.12438733 115.04021121 75.83314667 123.8717329 70.55908203 129.23608398 C69.0995771 130.70821857 67.63993783 132.18021998 66.18017578 133.65209961 C63.91149009 135.94570778 61.64445565 138.2409049 59.37988281 140.53857422 C57.17314973 142.77544874 54.96028675 145.00611176 52.74658203 147.23608398 C52.07048889 147.92563675 51.39439575 148.61518951 50.69781494 149.32563782 C50.06325378 149.96357773 49.42869263 150.60151764 48.77490234 151.25878906 C47.94505829 152.09981926 47.94505829 152.09981926 47.09844971 152.95783997 C43.82101021 155.77920635 41.11266597 156.65288398 36.82104492 156.71044922 C35.46427391 156.73443031 35.46427391 156.73443031 34.08009338 156.75889587 C33.11022995 156.76425858 32.14036652 156.76962128 31.14111328 156.77514648 C30.13761337 156.78417496 29.13411346 156.79320343 28.10020447 156.80250549 C25.97951234 156.81700192 23.85877556 156.82589322 21.73803711 156.82958984 C18.49597899 156.84149756 15.25581734 156.89069968 12.01416016 156.94116211 C9.95232048 156.95062528 7.89046912 156.95786082 5.82861328 156.96264648 C4.86077408 156.9821788 3.89293488 157.00171112 2.89576721 157.02183533 C-1.76548061 156.99062363 -3.89508185 156.92062261 -7.71655273 154.04492188 C-9.58154297 151.40405273 -9.58154297 151.40405273 -9.83154297 148.59155273 C-6.37969205 139.78933288 2.66168609 133.12027707 9.34434319 126.61695862 C12.43567121 123.60304818 15.50854914 120.5703876 18.58447266 117.54077148 C22.48039112 113.70490941 26.38165743 109.87505205 30.30444336 106.06665039 C33.49409456 102.96903963 36.66378364 99.85220635 39.82101631 96.72157288 C41.02238782 95.53744639 42.23089219 94.36051031 43.44663811 93.19114685 C45.14372471 91.55696216 46.8141246 89.89932902 48.48071289 88.23413086 C48.9840062 87.76117081 49.4872995 87.28821075 50.00584412 86.80091858 C52.56561303 84.187133 53.79453511 82.03612644 54.07505798 78.44244385 C53.74798174 73.73452672 51.1580103 71.08112001 47.85058594 67.9597168 C46.96295311 67.07515053 46.96295311 67.07515053 46.05738831 66.17271423 C44.10466009 64.23570442 42.12540668 62.32836446 40.14501953 60.41967773 C38.78029396 59.07496616 37.41747545 57.72831663 36.05648804 56.37982178 C32.47392865 52.83908109 28.86889923 49.32215846 25.25775146 45.81060791 C19.47900287 40.18254418 13.73722454 34.51670068 7.99131393 28.85515594 C5.98207267 26.88129847 3.96464351 24.91613906 1.94546509 22.95245361 C0.71191467 21.74534258 -0.52153982 20.53813351 -1.75488281 19.33081055 C-2.31808731 18.78736496 -2.88129181 18.24391937 -3.46156311 17.68400574 C-8.40005339 12.82985007 -8.40005339 12.82985007 -9.58154297 9.40405273 C-9.4423252 5.9932173 -9.34789908 4.12273725 -6.8132019 1.74571228 C-4.29007699 0.22882519 -2.91823623 0.01995328 0 0 Z " fill="#FFFFFF" transform="translate(767.58154296875,61.595947265625)"/>
<path d="M0 0 C9.38178284 9.27066189 16.54660241 21.2998907 19.30859375 34.28125 C19.30859375 35.60125 19.30859375 36.92125 19.30859375 38.28125 C18.22030273 38.30106934 17.13201172 38.32088867 16.01074219 38.34130859 C11.91775943 38.41820401 7.82509402 38.50678108 3.73242188 38.59863281 C1.97141856 38.63657993 0.21034673 38.67148797 -1.55078125 38.703125 C-23.6294391 38.32188553 -23.6294391 38.32188553 -42.46875 48.08203125 C-51.07769698 59.71396724 -53.28755357 76.41787942 -56.32177734 90.27709961 C-56.81432097 92.51349464 -57.31872864 94.74697047 -57.82421875 96.98046875 C-57.96803986 97.65647629 -58.11186096 98.33248383 -58.26004028 99.02897644 C-59.10368902 102.73671189 -59.9854961 105.54793502 -62.69140625 108.28125 C-65.62890625 108.90625 -65.62890625 108.90625 -68.69140625 108.28125 C-73.30963537 103.01746197 -74.29866754 96.78974387 -75.78515625 90.09375 C-76.1952594 88.32994995 -76.1952594 88.32994995 -76.61364746 86.53051758 C-77.77909767 81.51633649 -78.91575537 76.49573443 -80.05517578 71.47558594 C-80.89276675 67.80428045 -81.74485277 64.13654629 -82.59765625 60.46875 C-82.84882202 59.33735596 -83.09998779 58.20596191 -83.35876465 57.0402832 C-84.94366457 50.23190665 -86.40481832 45.12842233 -91.82421875 40.43359375 C-96.0674937 38.72819033 -100.03497528 38.80725971 -104.56640625 38.84375 C-105.43910156 38.82376953 -106.31179687 38.80378906 -107.2109375 38.78320312 C-111.87392323 38.78670913 -116.19194007 38.97101432 -120.12158203 41.69287109 C-125.67730388 47.31425933 -126.88153155 58.46408702 -128.63671875 65.93359375 C-128.89266815 66.99614883 -129.14861755 68.05870392 -129.412323 69.15345764 C-130.21971069 72.50714478 -131.01887777 75.86270573 -131.81640625 79.21875 C-132.62162226 82.5996465 -133.42875577 85.98002822 -134.24191284 89.35902405 C-134.74531664 91.45133788 -135.24414553 93.54475909 -135.73782349 95.63938904 C-135.96501068 96.58459915 -136.19219788 97.52980927 -136.42626953 98.50366211 C-136.6229422 99.33208115 -136.81961487 100.16050018 -137.02224731 101.01402283 C-137.70647673 103.33231141 -138.37868204 105.24705127 -139.69140625 107.28125 C-143.12890625 108.21875 -143.12890625 108.21875 -146.69140625 108.28125 C-149.40494403 106.24426464 -150.19605181 104.3410269 -150.9465332 101.09204102 C-151.14716873 100.25008682 -151.34780426 99.40813263 -151.55451965 98.54066467 C-151.76082504 97.63134689 -151.96713043 96.72202911 -152.1796875 95.78515625 C-152.64371134 93.84436066 -153.10790985 91.90360682 -153.57226562 89.96289062 C-154.28754998 86.91652603 -154.99803093 83.86912637 -155.70385742 80.82055664 C-159.39760125 62.09178136 -159.39760125 62.09178136 -169.37890625 46.28125 C-178.73017477 40.63520108 -188.30360682 39.17719434 -199.02734375 38.96484375 C-199.90669586 38.94406265 -200.78604797 38.92328156 -201.69204712 38.90187073 C-204.48342556 38.83682037 -207.27489296 38.77769852 -210.06640625 38.71875 C-211.9661548 38.67552238 -213.86589456 38.63190677 -215.765625 38.58789062 C-220.40746239 38.48118499 -225.04938871 38.37979385 -229.69140625 38.28125 C-228.09666991 31.22641917 -226.39236788 24.5991033 -223.06640625 18.15625 C-222.72085693 17.47957275 -222.37530762 16.80289551 -222.01928711 16.10571289 C-213.35981377 -0.16354187 -198.93790995 -8.9726459 -181.94140625 -14.84375 C-133.49888315 -28.7340792 -41.69792791 -35.60414205 0 0 Z " fill="#FFFFFF" transform="translate(237.69140625,23.71875)"/>
<path d="M0 0 C2.24566003 -0.0171905 4.48983863 -0.06107399 6.73510742 -0.10522461 C8.16803932 -0.11535399 9.60098372 -0.12386933 11.03393555 -0.13061523 C12.98650269 -0.15248901 12.98650269 -0.15248901 14.97851562 -0.17480469 C19.017373 0.37167739 20.63743647 1.39754421 23.4519043 4.29516602 C24.5045089 7.45297983 24.58540272 9.68992564 24.59907532 13.00642395 C24.60623062 14.19668686 24.61338593 15.38694977 24.62075806 16.61328125 C24.62344696 17.92087402 24.62613586 19.2284668 24.62890625 20.57568359 C24.6351721 21.96538971 24.64181901 23.35509414 24.64881897 24.74479675 C24.66984563 29.30975175 24.68021937 33.87470704 24.69018555 38.43969727 C24.69423349 40.01180222 24.69835042 41.58390699 24.70253563 43.15601158 C24.72158346 50.54141282 24.7358159 57.92680408 24.7441476 65.31222516 C24.75392189 73.83543858 24.78024796 82.35839242 24.82064849 90.88151437 C24.85081093 97.47100063 24.86561655 104.06041247 24.86892861 110.64996642 C24.87127878 114.58498159 24.8802347 118.51971933 24.90538979 122.45466042 C24.92867833 126.15737387 24.93290091 129.85962737 24.9226284 133.5623951 C24.92189739 135.56512515 24.94098268 137.56783189 24.96069336 139.57046509 C24.89673585 150.61155329 24.89673585 150.61155329 20.4519043 155.29516602 C15.97120182 157.53551726 9.88637817 156.56373951 4.90380859 156.59033203 C2.65814856 156.60752253 0.41396996 156.65140602 -1.83129883 156.69555664 C-3.26423073 156.70568602 -4.69717513 156.71420136 -6.13012695 156.72094727 C-8.08269409 156.74282104 -8.08269409 156.74282104 -10.07470703 156.76513672 C-14.09739515 156.22084244 -15.70849306 155.13410805 -18.5480957 152.29516602 C-19.87949519 149.63236703 -19.68316675 147.60458657 -19.69526672 144.62150574 C-19.70242203 143.41434402 -19.70957733 142.20718231 -19.71694946 140.96343994 C-19.71978984 139.61853053 -19.72250156 138.27362084 -19.72509766 136.92871094 C-19.73136145 135.51782564 -19.73800817 134.106942 -19.74501038 132.69606018 C-19.76242757 128.8571281 -19.77297404 125.01820847 -19.78121591 121.17924666 C-19.78636444 118.78146062 -19.79244023 116.38367846 -19.79872704 113.98589516 C-19.81778096 106.48569627 -19.83201178 98.98550724 -19.840339 91.4852888 C-19.85011381 82.82395597 -19.87643864 74.16287855 -19.9168399 65.50163573 C-19.94698651 58.80942605 -19.96180648 52.11728964 -19.96512002 45.42501336 C-19.96747214 41.42685995 -19.97645327 37.42897932 -20.00158119 33.43089867 C-20.02484183 29.66910778 -20.02910355 25.90776966 -20.01881981 22.14592552 C-20.01832384 20.76604711 -20.02466231 19.38614657 -20.03837585 18.00633621 C-20.0560646 16.12089933 -20.0466131 14.23526631 -20.0358429 12.34977722 C-20.03823125 11.29507831 -20.0406196 10.24037939 -20.04308033 9.1537199 C-19.42226245 5.56847447 -18.04134752 3.89504059 -15.5480957 1.29516602 C-11.06739322 -0.94518523 -4.98256958 0.02659252 0 0 Z " fill="#FFFFFF" transform="translate(306.548095703125,61.704833984375)"/>
<path d="M0 0 C4.07733699 3.00343453 7.21919777 6.52868707 8.82421875 11.34375 C9.48939349 18.80243065 9.48852979 24.32924366 4.82421875 30.34375 C0.10325775 35.18111826 -4.27243585 37.40090083 -10.98828125 37.71875 C-16.86906402 37.57873136 -21.37598727 35.94406757 -25.7109375 31.91796875 C-30.442589 26.57934155 -31.65420935 21.87523001 -31.48828125 14.90625 C-30.8139485 9.37672146 -28.3849171 5.14393371 -24.23828125 1.46875 C-16.68219277 -3.77425017 -8.17712173 -4.64420707 0 0 Z M-25.17578125 9.03125 C-26.92200115 14.81560342 -27.37635599 20.68069072 -24.61328125 26.21875 C-21.39326151 30.34698044 -18.39563165 32.79569036 -13.15625 33.6875 C-8.43462203 33.90417126 -5.08363313 32.91937965 -1.17578125 30.34375 C2.47759479 26.5888913 4.76283416 22.74718435 4.859375 17.39453125 C4.47378344 12.4570783 3.11910236 9.15887839 -0.17578125 5.34375 C-4.08763059 2.14675638 -7.95240604 0.60291268 -13.12109375 0.89453125 C-18.28959037 2.02452576 -22.05965027 4.843949 -25.17578125 9.03125 Z " fill="#FFFFFF" transform="translate(1001.17578125,44.65625)"/>
<path d="M0 0 C10.17966102 -0.48474576 10.17966102 -0.48474576 13.75 1.625 C15.44231677 4.84040186 15.04260838 6.57428675 14 10 C13.34 10.66 12.68 11.32 12 12 C12.99 13.98 13.98 15.96 15 18 C12.6875 17.75 12.6875 17.75 10 17 C8.9739266 15.68662604 7.97272675 14.35335895 7 13 C4.90584196 12.20376178 4.90584196 12.20376178 3 12 C3 13.98 3 15.96 3 18 C2.01 18 1.02 18 0 18 C0 12.06 0 6.12 0 0 Z M3 3 C2.957279 4.66611905 2.95936168 6.33382885 3 8 C3.33 8.33 3.66 8.66 4 9 C6.33944736 8.71269945 8.6739143 8.38063221 11 8 C10.67 6.35 10.34 4.7 10 3 C7.69 3 5.38 3 3 3 Z " fill="#FFFFFF" transform="translate(983,53)"/>
</svg>
